<svg width="107" height="107" viewBox="0 0 107 107" fill="none" xmlns="http://www.w3.org/2000/svg">
<path d="M99.3571 42.0357H64.9643V7.64286C64.9643 3.42257 61.5417 0 57.3214 0H49.6786C45.4583 0 42.0357 3.42257 42.0357 7.64286V42.0357H7.64286C3.42257 42.0357 0 45.4583 0 49.6786V57.3214C0 61.5417 3.42257 64.9643 7.64286 64.9643H42.0357V99.3571C42.0357 103.577 45.4583 107 49.6786 107H57.3214C61.5417 107 64.9643 103.577 64.9643 99.3571V64.9643H99.3571C103.577 64.9643 107 61.5417 107 57.3214V49.6786C107 45.4583 103.577 42.0357 99.3571 42.0357Z" fill="#03256C"/>
</svg>
