<svg width="107" height="94" viewBox="0 0 107 94" fill="none" xmlns="http://www.w3.org/2000/svg">
<path d="M106.484 87.8879L56.8077 1.91061C56.0674 0.632888 54.7897 0 53.5 0C52.2103 0 50.9207 0.632888 50.1923 1.91061L0.516501 87.8879C-0.952277 90.4433 0.886681 93.6197 3.82424 93.6197H103.176C106.113 93.6197 107.952 90.4433 106.484 87.8879ZM49.6788 35.3462C49.6788 34.8208 50.1087 34.3909 50.6341 34.3909H56.3659C56.8913 34.3909 57.3212 34.8208 57.3212 35.3462V57.3182C57.3212 57.8436 56.8913 58.2735 56.3659 58.2735H50.6341C50.1087 58.2735 49.6788 57.8436 49.6788 57.3182V35.3462ZM53.5 77.3796C52.0001 77.3489 50.5719 76.7316 49.522 75.66C48.4721 74.5884 47.884 73.148 47.884 71.6477C47.884 70.1475 48.4721 68.7071 49.522 67.6355C50.5719 66.5639 52.0001 65.9465 53.5 65.9159C54.9999 65.9465 56.4281 66.5639 57.478 67.6355C58.5279 68.7071 59.116 70.1475 59.116 71.6477C59.116 73.148 58.5279 74.5884 57.478 75.66C56.4281 76.7316 54.9999 77.3489 53.5 77.3796V77.3796Z" fill="#8C0000"/>
</svg>
